<svg width="54" height="13" viewBox="0 0 54 13" fill="none" xmlns="http://www.w3.org/2000/svg">
<path d="M14.1801 11H12.3676L15.1293 3H17.309L20.0668 11H18.2543L16.2504 4.82812H16.1879L14.1801 11ZM14.0668 7.85547H18.3481V9.17578H14.0668V7.85547ZM25.4003 5L23.3026 11H21.4276L19.33 5H21.0878L22.3339 9.29297H22.3964L23.6386 5H25.4003ZM28.3529 11.1172C27.7357 11.1172 27.2044 10.9922 26.7591 10.7422C26.3164 10.4896 25.9752 10.1328 25.7357 9.67187C25.4961 9.20833 25.3763 8.66016 25.3763 8.02734C25.3763 7.41016 25.4961 6.86849 25.7357 6.40234C25.9752 5.9362 26.3125 5.57292 26.7474 5.3125C27.1849 5.05208 27.6979 4.92188 28.2864 4.92188C28.6823 4.92188 29.0508 4.98568 29.3919 5.11328C29.7357 5.23828 30.0351 5.42708 30.2904 5.67969C30.5482 5.93229 30.7487 6.25 30.8919 6.63281C31.0351 7.01302 31.1068 7.45833 31.1068 7.96875V8.42578H26.0404V7.39453H29.5404C29.5404 7.15495 29.4883 6.94271 29.3841 6.75781C29.2799 6.57292 29.1354 6.42839 28.9505 6.32422C28.7682 6.21745 28.556 6.16406 28.3138 6.16406C28.0612 6.16406 27.8372 6.22266 27.6419 6.33984C27.4492 6.45443 27.2982 6.60937 27.1888 6.80469C27.0794 6.9974 27.0234 7.21224 27.0208 7.44922V8.42969C27.0208 8.72656 27.0755 8.98307 27.1849 9.19922C27.2969 9.41536 27.4544 9.58203 27.6575 9.69922C27.8607 9.81641 28.1015 9.875 28.3802 9.875C28.5651 9.875 28.7344 9.84896 28.888 9.79688C29.0417 9.74479 29.1732 9.66667 29.2825 9.5625C29.3919 9.45833 29.4752 9.33073 29.5325 9.17969L31.0716 9.28125C30.9935 9.65104 30.8333 9.97396 30.5911 10.25C30.3515 10.5234 30.0417 10.737 29.6614 10.8906C29.2838 11.0417 28.8476 11.1172 28.3529 11.1172ZM31.7527 11V5H33.3386V6.05859H33.4089C33.5339 5.70703 33.7423 5.42969 34.0339 5.22656C34.3256 5.02344 34.6746 4.92188 35.0808 4.92188C35.4923 4.92188 35.8425 5.02474 36.1316 5.23047C36.4207 5.43359 36.6134 5.70964 36.7097 6.05859H36.7722C36.8946 5.71484 37.116 5.4401 37.4363 5.23437C37.7592 5.02604 38.1407 4.92188 38.5808 4.92188C39.1407 4.92188 39.5951 5.10026 39.9441 5.45703C40.2957 5.8112 40.4714 6.3138 40.4714 6.96484V11H38.8113V7.29297C38.8113 6.95964 38.7227 6.70964 38.5457 6.54297C38.3686 6.3763 38.1472 6.29297 37.8816 6.29297C37.5795 6.29297 37.3438 6.38932 37.1746 6.58203C37.0053 6.77214 36.9207 7.02344 36.9207 7.33594V11H35.3074V7.25781C35.3074 6.96354 35.2227 6.72917 35.0535 6.55469C34.8868 6.38021 34.6668 6.29297 34.3933 6.29297C34.2084 6.29297 34.0418 6.33984 33.8933 6.43359C33.7475 6.52474 33.6316 6.65365 33.5457 6.82031C33.4597 6.98437 33.4168 7.17708 33.4168 7.39844V11H31.7527ZM44.0803 11.1172C43.4631 11.1172 42.9318 10.9922 42.4865 10.7422C42.0438 10.4896 41.7027 10.1328 41.4631 9.67187C41.2235 9.20833 41.1037 8.66016 41.1037 8.02734C41.1037 7.41016 41.2235 6.86849 41.4631 6.40234C41.7027 5.9362 42.0399 5.57292 42.4748 5.3125C42.9123 5.05208 43.4253 4.92188 44.0139 4.92188C44.4097 4.92188 44.7782 4.98568 45.1193 5.11328C45.4631 5.23828 45.7626 5.42708 46.0178 5.67969C46.2756 5.93229 46.4761 6.25 46.6193 6.63281C46.7626 7.01302 46.8342 7.45833 46.8342 7.96875V8.42578H41.7678V7.39453H45.2678C45.2678 7.15495 45.2157 6.94271 45.1115 6.75781C45.0074 6.57292 44.8628 6.42839 44.6779 6.32422C44.4956 6.21745 44.2834 6.16406 44.0412 6.16406C43.7886 6.16406 43.5646 6.22266 43.3693 6.33984C43.1766 6.45443 43.0256 6.60937 42.9162 6.80469C42.8068 6.9974 42.7508 7.21224 42.7482 7.44922V8.42969C42.7482 8.72656 42.8029 8.98307 42.9123 9.19922C43.0243 9.41536 43.1818 9.58203 43.385 9.69922C43.5881 9.81641 43.829 9.875 44.1076 9.875C44.2925 9.875 44.4618 9.84896 44.6154 9.79688C44.7691 9.74479 44.9006 9.66667 45.01 9.5625C45.1193 9.45833 45.2027 9.33073 45.26 9.17969L46.799 9.28125C46.7209 9.65104 46.5607 9.97396 46.3186 10.25C46.079 10.5234 45.7691 10.737 45.3889 10.8906C45.0113 11.0417 44.5751 11.1172 44.0803 11.1172ZM48.7633 5L49.8649 7.09766L50.9938 5H52.7008L50.9625 8L52.7477 11H51.0485L49.8649 8.92578L48.7008 11H46.9821L48.7633 8L47.0446 5H48.7633Z" fill="#050505"/>
<path d="M3.18182 11.0909H1.36364C1.24308 11.0909 1.12747 11.043 1.04222 10.9578C0.95698 10.8725 0.909091 10.7569 0.909091 10.6364V8.81818C0.909091 8.69763 0.861201 8.58201 0.775958 8.49677C0.690714 8.41153 0.575098 8.36364 0.454545 8.36364C0.333993 8.36364 0.218377 8.41153 0.133133 8.49677C0.0478895 8.58201 0 8.69763 0 8.81818V10.6364C0 10.998 0.143668 11.3449 0.3994 11.6006C0.655131 11.8563 1.00198 12 1.36364 12H3.18182C3.30237 12 3.41799 11.9521 3.50323 11.8669C3.58847 11.7816 3.63636 11.666 3.63636 11.5455C3.63636 11.4249 3.58847 11.3093 3.50323 11.224C3.41799 11.1388 3.30237 11.0909 3.18182 11.0909ZM9.54545 8.36364C9.4249 8.36364 9.30929 8.41153 9.22404 8.49677C9.1388 8.58201 9.09091 8.69763 9.09091 8.81818V10.6364C9.09091 10.7569 9.04302 10.8725 8.95778 10.9578C8.87253 11.043 8.75692 11.0909 8.63636 11.0909H6.81818C6.69763 11.0909 6.58201 11.1388 6.49677 11.224C6.41153 11.3093 6.36364 11.4249 6.36364 11.5455C6.36364 11.666 6.41153 11.7816 6.49677 11.8669C6.58201 11.9521 6.69763 12 6.81818 12H8.63636C8.99802 12 9.34487 11.8563 9.6006 11.6006C9.85633 11.3449 10 10.998 10 10.6364V8.81818C10 8.69763 9.95211 8.58201 9.86687 8.49677C9.78162 8.41153 9.66601 8.36364 9.54545 8.36364ZM8.63636 2H6.81818C6.69763 2 6.58201 2.04789 6.49677 2.13313C6.41153 2.21838 6.36364 2.33399 6.36364 2.45455C6.36364 2.5751 6.41153 2.69071 6.49677 2.77596C6.58201 2.8612 6.69763 2.90909 6.81818 2.90909H8.63636C8.75692 2.90909 8.87253 2.95698 8.95778 3.04222C9.04302 3.12747 9.09091 3.24308 9.09091 3.36364V5.18182C9.09091 5.30237 9.1388 5.41799 9.22404 5.50323C9.30929 5.58847 9.4249 5.63636 9.54545 5.63636C9.66601 5.63636 9.78162 5.58847 9.86687 5.50323C9.95211 5.41799 10 5.30237 10 5.18182V3.36364C10 3.00198 9.85633 2.65513 9.6006 2.3994C9.34487 2.14367 8.99802 2 8.63636 2ZM0.454545 5.63636C0.575098 5.63636 0.690714 5.58847 0.775958 5.50323C0.861201 5.41799 0.909091 5.30237 0.909091 5.18182V3.36364C0.909091 3.24308 0.95698 3.12747 1.04222 3.04222C1.12747 2.95698 1.24308 2.90909 1.36364 2.90909H3.18182C3.30237 2.90909 3.41799 2.8612 3.50323 2.77596C3.58847 2.69071 3.63636 2.5751 3.63636 2.45455C3.63636 2.33399 3.58847 2.21838 3.50323 2.13313C3.41799 2.04789 3.30237 2 3.18182 2H1.36364C1.00198 2 0.655131 2.14367 0.3994 2.3994C0.143668 2.65513 0 3.00198 0 3.36364V5.18182C0 5.30237 0.0478895 5.41799 0.133133 5.50323C0.218377 5.58847 0.333993 5.63636 0.454545 5.63636ZM4.09091 3.81818H2.27273C2.15217 3.81818 2.03656 3.86607 1.95132 3.95132C1.86607 4.03656 1.81818 4.15217 1.81818 4.27273V6.09091C1.81818 6.21146 1.86607 6.32708 1.95132 6.41232C2.03656 6.49757 2.15217 6.54545 2.27273 6.54545H4.09091C4.21146 6.54545 4.32708 6.49757 4.41232 6.41232C4.49757 6.32708 4.54545 6.21146 4.54545 6.09091V4.27273C4.54545 4.15217 4.49757 4.03656 4.41232 3.95132C4.32708 3.86607 4.21146 3.81818 4.09091 3.81818ZM3.63636 5.63636H2.72727V4.72727H3.63636V5.63636ZM5.90909 6.54545H7.72727C7.84783 6.54545 7.96344 6.49757 8.04869 6.41232C8.13393 6.32708 8.18182 6.21146 8.18182 6.09091V4.27273C8.18182 4.15217 8.13393 4.03656 8.04869 3.95132C7.96344 3.86607 7.84783 3.81818 7.72727 3.81818H5.90909C5.78854 3.81818 5.67292 3.86607 5.58768 3.95132C5.50244 4.03656 5.45455 4.15217 5.45455 4.27273V6.09091C5.45455 6.21146 5.50244 6.32708 5.58768 6.41232C5.67292 6.49757 5.78854 6.54545 5.90909 6.54545ZM6.36364 4.72727H7.27273V5.63636H6.36364V4.72727ZM4.09091 7.45455H2.27273C2.15217 7.45455 2.03656 7.50244 1.95132 7.58768C1.86607 7.67292 1.81818 7.78854 1.81818 7.90909V9.72727C1.81818 9.84783 1.86607 9.96344 1.95132 10.0487C2.03656 10.1339 2.15217 10.1818 2.27273 10.1818H4.09091C4.21146 10.1818 4.32708 10.1339 4.41232 10.0487C4.49757 9.96344 4.54545 9.84783 4.54545 9.72727V7.90909C4.54545 7.78854 4.49757 7.67292 4.41232 7.58768C4.32708 7.50244 4.21146 7.45455 4.09091 7.45455ZM3.63636 9.27273H2.72727V8.36364H3.63636V9.27273ZM5.90909 8.81818C6.02964 8.81818 6.14526 8.77029 6.2305 8.68505C6.31575 8.5998 6.36364 8.48419 6.36364 8.36364C6.48419 8.36364 6.5998 8.31575 6.68505 8.2305C6.77029 8.14526 6.81818 8.02964 6.81818 7.90909C6.81818 7.78854 6.77029 7.67292 6.68505 7.58768C6.5998 7.50244 6.48419 7.45455 6.36364 7.45455H5.90909C5.78854 7.45455 5.67292 7.50244 5.58768 7.58768C5.50244 7.67292 5.45455 7.78854 5.45455 7.90909V8.36364C5.45455 8.48419 5.50244 8.5998 5.58768 8.68505C5.67292 8.77029 5.78854 8.81818 5.90909 8.81818ZM7.72727 7.45455C7.60672 7.45455 7.4911 7.50244 7.40586 7.58768C7.32062 7.67292 7.27273 7.78854 7.27273 7.90909V9.27273C7.15217 9.27273 7.03656 9.32062 6.95131 9.40586C6.86607 9.4911 6.81818 9.60672 6.81818 9.72727C6.81818 9.84783 6.86607 9.96344 6.95131 10.0487C7.03656 10.1339 7.15217 10.1818 7.27273 10.1818H7.72727C7.84783 10.1818 7.96344 10.1339 8.04869 10.0487C8.13393 9.96344 8.18182 9.84783 8.18182 9.72727V7.90909C8.18182 7.78854 8.13393 7.67292 8.04869 7.58768C7.96344 7.50244 7.84783 7.45455 7.72727 7.45455ZM5.90909 9.27273C5.81919 9.27273 5.73131 9.29939 5.65656 9.34933C5.58181 9.39928 5.52355 9.47027 5.48915 9.55333C5.45474 9.63638 5.44574 9.72778 5.46328 9.81595C5.48082 9.90412 5.52411 9.98512 5.58768 10.0487C5.65125 10.1123 5.73224 10.1555 5.82041 10.1731C5.90859 10.1906 5.99998 10.1816 6.08304 10.1472C6.1661 10.1128 6.23709 10.0546 6.28703 9.97981C6.33698 9.90506 6.36364 9.81717 6.36364 9.72727C6.36364 9.60672 6.31575 9.4911 6.2305 9.40586C6.14526 9.32062 6.02964 9.27273 5.90909 9.27273Z" fill="#050505"/>
</svg>
